<svg width="70" height="60" viewBox="0 0 70 60" fill="none" xmlns="http://www.w3.org/2000/svg">
<path d="M35.5706 5.00196C35.6514 5.00196 35.7053 5.00196 35.7862 5.00196C36.1904 5.02874 36.5677 5.18944 36.8641 5.45728C40.4483 8.69811 44.0325 11.9121 47.6167 15.1798C48.1287 15.6351 48.3982 16.2779 48.3982 17.0278C48.3982 20.9115 48.3982 24.7951 48.3982 28.652C48.3982 29.9376 47.482 30.8482 46.1615 30.8482C44.841 30.8482 43.4935 30.8482 42.173 30.8482C40.8526 30.8482 38.535 30.8482 36.7024 30.8482H35.4628C33.3877 30.8482 31.3127 30.8482 29.2376 30.8482C27.1626 30.8482 26.3541 30.8482 24.9258 30.8482C23.4706 30.8482 22.5543 29.9376 22.5543 28.4913C22.5543 24.6612 22.5543 20.8311 22.5543 16.9743C22.5543 16.2243 22.7699 15.6351 23.3898 15.0994C26.92 11.9657 30.4234 8.77846 33.9267 5.61798C34.4118 5.18944 34.9508 4.97517 35.5706 4.97517M35.5706 0.44873C33.792 0.44873 32.1751 1.09154 30.8546 2.27002C29.9114 3.1271 28.9681 3.95739 28.0249 4.81447C25.5187 7.09108 22.9047 9.44805 20.3445 11.7247C18.8085 13.0906 18 14.9119 18 17.001C18 19.0098 18 21.0186 18 23.0274C18 24.8487 18 26.67 18 28.518C18 30.4465 18.7007 32.1874 19.9942 33.473C21.2608 34.7319 23.0394 35.4282 24.9528 35.4282H29.2646H32.7679H35.4897H36.7294H39.4512H42.2C43.5205 35.4282 44.8679 35.4282 46.1884 35.4282C49.9882 35.4282 52.9795 32.4552 52.9795 28.6787C52.9795 26.8574 52.9795 25.0629 52.9795 23.2416C52.9795 21.1793 52.9795 19.117 52.9795 17.0278C52.9795 15.0191 52.171 13.171 50.7158 11.8318C48.0748 9.42126 45.3799 6.98395 42.7659 4.62699C41.8227 3.79669 40.9065 2.93961 39.9632 2.10932C38.8853 1.14511 37.5648 0.582649 36.1365 0.475514C35.9479 0.475514 35.7592 0.475514 35.5706 0.475514V0.44873Z" fill="#999999"/>
<path d="M20.1501 53H18.7101V44.6H20.1501V48.056H24.7581V44.6H26.1981V53H24.7581V49.352H20.1501V53ZM30.6148 53.18C28.5508 53.18 27.3508 51.728 27.3508 49.76C27.3508 47.684 28.7548 46.448 30.6148 46.448C32.6668 46.448 33.8668 47.888 33.8668 49.76C33.8668 51.908 32.5108 53.18 30.6148 53.18ZM30.6148 51.968C31.7548 51.968 32.4268 51.032 32.4268 49.76C32.4268 48.5 31.7188 47.66 30.6148 47.66C29.5108 47.66 28.7908 48.5 28.7908 49.76C28.7908 51.152 29.5708 51.968 30.6148 51.968ZM36.3919 53H34.9759V46.64H36.1159L36.2239 47.528C36.6199 46.904 37.3999 46.448 38.3479 46.448C39.2599 46.448 39.9559 46.904 40.2919 47.636C40.6519 46.964 41.4679 46.448 42.4759 46.448C43.8079 46.448 44.6599 47.396 44.6599 48.764V53H43.2319V48.836C43.2319 48.128 42.7999 47.672 42.1159 47.672C41.1439 47.672 40.5319 48.308 40.5199 49.148V53H39.1039V48.836C39.1039 48.128 38.6719 47.672 37.9879 47.672C37.0159 47.672 36.4039 48.308 36.3919 49.148V53ZM48.8649 53.18C46.9209 53.18 45.5889 51.788 45.5889 49.844C45.5889 47.744 46.9689 46.448 48.7449 46.448C50.5449 46.448 51.7449 47.708 51.7809 49.772V50.108H47.0049C47.1009 51.224 47.7969 51.98 48.8769 51.98C49.6089 51.98 50.1609 51.62 50.3769 50.984H51.7569C51.4329 52.352 50.3649 53.18 48.8649 53.18ZM47.0649 49.112H50.3169C50.1369 48.2 49.5729 47.648 48.7449 47.648C47.9049 47.648 47.2809 48.2 47.0649 49.112Z" fill="#A2A1A1"/>
</svg>
