<svg width="70" height="64" viewBox="0 0 70 64" fill="none" xmlns="http://www.w3.org/2000/svg">
<path d="M16.6989 26.4709C16.0236 26.2818 15.2674 26.3898 14.5922 26.795C14.3761 26.93 14.133 27.0651 13.9169 27.1731C13.5388 27.4162 13.1607 27.6322 12.7826 27.8213C12.2694 28.0914 11.5132 28.5776 11.108 29.4688L11 29.6849V30.9813L11.1621 31.2514C11.7833 32.3048 12.5125 32.8179 13.4038 32.8179C14.2951 32.8179 14.5112 32.6289 15.1594 32.2507C15.4835 32.0617 15.7806 31.8726 16.1047 31.7106C16.4288 31.5215 16.7529 31.3324 17.077 31.1434C18.4004 30.3601 18.8596 28.9017 18.1573 27.6593C17.8332 27.0651 17.3201 26.6599 16.6989 26.4979V26.4709Z" fill="#999999"/>
<path d="M17.1308 10.9408C16.6987 10.6708 16.2395 10.4277 15.7804 10.1576L15.1592 9.80647C13.4576 8.83416 12.1612 9.15826 11.1619 10.8328L11.0269 11.0759V12.3723L11.1349 12.5884C11.54 13.4797 12.2963 13.9388 12.8094 14.2089C13.2146 14.425 13.6197 14.6681 14.0248 14.9111C14.2139 15.0192 14.43 15.1542 14.619 15.2622C15.0782 15.5323 15.5643 15.6674 16.0505 15.6674C16.5366 15.6674 16.4826 15.6404 16.6987 15.5864C17.3199 15.4243 17.8331 14.9922 18.1842 14.425C18.8864 13.1826 18.4543 11.7241 17.1578 10.9679L17.1308 10.9408Z" fill="#999999"/>
<path d="M27.0973 5.32298C27.1243 6.75445 28.1507 7.80779 29.5011 7.8348H29.5551C30.9056 7.8348 32.0129 6.78146 32.0399 5.43102C32.0669 4.37768 32.0669 3.35134 32.0399 2.37903C32.0129 1.70381 31.7158 1.0826 31.2297 0.650462C30.7435 0.191312 30.0953 -0.0247581 29.4201 0.00225073C28.0967 0.0832771 27.0973 1.13662 27.0703 2.48706C27.0703 2.81117 27.0703 3.13527 27.0703 3.45938V3.89152V4.32366C27.0703 4.64776 27.0703 4.99888 27.0703 5.32298H27.0973Z" fill="#999999"/>
<path d="M43.1404 15.6674C43.5185 15.6674 43.9237 15.5863 44.3018 15.3703C45.0851 14.9651 45.9223 14.479 46.9757 13.8308C47.7049 13.3986 48.11 12.6424 48.11 11.7511C48.11 10.8598 47.6779 10.0495 46.9217 9.59037C46.1654 9.13122 45.2201 9.10421 44.4098 9.56336C43.6536 9.9685 42.8433 10.4276 41.871 11.0218C40.7096 11.7241 40.3315 13.1825 40.9797 14.3709C41.4389 15.1812 42.2761 15.6674 43.1404 15.6674Z" fill="#999999"/>
<path d="M57.2389 28.9287C56.2395 24.2291 52.0262 21.2042 47.2726 21.6903C46.1652 18.6383 43.6264 16.3426 40.3854 15.5323C39.7912 15.3973 39.224 15.2892 38.6298 15.2622C37.0903 12.9665 34.7405 11.4 32.0126 10.8598C29.2037 10.2926 26.3408 10.8598 23.991 12.5073C21.0741 14.506 19.3725 17.8281 19.4265 21.3392C19.4806 24.1211 20.6149 26.714 22.5326 28.6316C21.8033 29.7389 21.3712 31.0624 21.3442 32.4668C21.3172 34.4655 22.0464 36.3291 23.4238 37.7335C24.7743 39.111 26.6109 39.8942 28.5825 39.9213C29.906 39.9213 31.2294 39.9213 32.5258 39.9213C33.8222 39.9213 34.5245 39.9213 35.5238 39.9213C36.5231 39.9213 37.5224 39.9213 38.5218 39.9213H40.5474C40.8715 39.9213 41.2227 39.9213 41.5468 39.9213C43.7885 39.9213 46.1112 39.9213 48.407 39.9213C51.0809 39.9213 53.6197 38.6518 55.3482 36.5181C57.0768 34.3574 57.752 31.6025 57.1848 28.9827L57.2389 28.9287ZM24.045 21.2852C24.018 19.2595 24.9363 17.4499 26.6109 16.3156C27.6102 15.6403 28.7446 15.2892 29.933 15.2892C31.1214 15.2892 30.7162 15.3162 31.1213 15.3973C31.9316 15.5593 32.6879 15.8834 33.3361 16.3426C30.2031 18.2872 28.2314 21.2312 27.5832 24.9584C27.043 25.1204 26.5029 25.3365 26.0167 25.6066C24.7743 24.5262 24.072 22.9867 24.045 21.2852ZM51.8371 33.6012C50.9728 34.6815 49.7574 35.2757 48.461 35.3027C46.1923 35.3027 43.8695 35.3027 41.6278 35.3027C40.6014 35.3027 39.6021 35.3027 38.5758 35.3027H36.28C36.037 35.3027 35.7939 35.3027 35.5778 35.3027C33.3091 35.3027 30.9593 35.3027 28.6636 35.3027C27.9343 35.3027 27.2591 35.0057 26.7729 34.5195C26.2598 34.0063 25.9897 33.3041 25.9897 32.5208C25.9897 31.1434 27.2321 29.955 28.6095 29.955C28.7176 29.955 28.8256 29.955 28.9606 29.955C30.5272 29.955 31.4455 29.3338 31.9586 28.7666C32.4718 28.2264 33.039 27.2271 32.8769 25.6606C32.6879 23.905 33.201 22.5006 34.4704 21.2582C35.7129 20.0158 37.5224 19.5566 39.305 19.9888C41.0876 20.4209 42.465 21.6903 43.0052 23.3919V23.4729C43.0592 23.5809 43.0862 23.689 43.1403 23.77C43.7885 25.6336 45.409 26.6059 47.3807 26.2818C50.0005 25.8497 52.2152 27.3352 52.7824 29.874C53.0525 31.1434 52.7284 32.4938 51.8641 33.5742L51.8371 33.6012Z" fill="#999999"/>
<path d="M24.8376 57H23.3976V48.6H25.1736L27.8016 55.272L30.4176 48.6H32.1936V57H30.7536V51.084L28.4256 57H27.1656L24.8376 51.096V57ZM35.7985 57.132C34.3345 57.132 33.3745 56.424 33.3865 55.236C33.3985 53.748 34.8745 53.436 36.1105 53.292C37.0705 53.184 37.7785 53.148 37.7905 52.644C37.7785 52.02 37.2985 51.612 36.4825 51.612C35.6425 51.612 35.0425 52.068 34.9585 52.728H33.5305C33.6625 51.384 34.8625 50.448 36.5065 50.448C38.2225 50.448 39.1705 51.384 39.1705 52.74V55.62C39.1705 55.8 39.2665 55.896 39.4825 55.896H39.8305V57H39.1585C38.5105 57 38.1145 56.736 38.0065 56.256C37.9825 56.196 37.9585 56.112 37.9465 56.04C37.5745 56.724 36.8785 57.132 35.7985 57.132ZM36.0865 56.016C37.0585 56.016 37.7905 55.464 37.7905 54.612V53.724C37.5505 54.096 36.9385 54.18 36.2665 54.264C35.4745 54.36 34.8145 54.468 34.8145 55.14C34.8145 55.692 35.2585 56.016 36.0865 56.016ZM42.1149 59.4H40.6869V50.64H41.8269L41.9709 51.684C42.3909 50.94 43.2189 50.448 44.2269 50.448C45.9069 50.448 47.0949 51.816 47.0949 53.784C47.0949 55.788 45.9069 57.18 44.2149 57.18C43.3029 57.18 42.5469 56.772 42.1149 56.112V59.4ZM43.9029 55.98C44.9349 55.98 45.6429 55.08 45.6429 53.784C45.6429 52.524 44.9349 51.648 43.8909 51.648C42.8469 51.648 42.1149 52.512 42.1149 53.748C42.1149 55.056 42.8469 55.98 43.9029 55.98Z" fill="#A2A1A1"/>
</svg>
