<svg width="35" height="35" viewBox="0 0 35 35" fill="none" xmlns="http://www.w3.org/2000/svg">
<path d="M30.625 16.7708C30.63 18.6956 30.1803 20.5944 29.3125 22.3125C28.2835 24.3713 26.7017 26.103 24.7442 27.3135C22.7867 28.5241 20.5308 29.1658 18.2292 29.1667C16.3044 29.1717 14.4056 28.722 12.6875 27.8542L4.375 30.625L7.14583 22.3125C6.27802 20.5944 5.82831 18.6956 5.83333 16.7708C5.83422 14.4692 6.47589 12.2133 7.68647 10.2558C8.89704 8.29828 10.6287 6.71645 12.6875 5.6875C14.4056 4.81969 16.3044 4.36998 18.2292 4.375H18.9583C21.998 4.54269 24.869 5.82569 27.0217 7.97833C29.1743 10.131 30.4573 13.002 30.625 16.0417V16.7708Z" stroke="#A2A1A1" stroke-width="3.41667" stroke-linecap="round" stroke-linejoin="round"/>
</svg>
