<svg width="70" height="60" viewBox="0 0 70 60" fill="none" xmlns="http://www.w3.org/2000/svg">
<path d="M21.8299 53H20.3899V44.6H21.9499L26.1139 50.924V44.6H27.5539V53H25.9939L21.8299 46.676V53ZM32.0019 53.18C30.0579 53.18 28.7259 51.788 28.7259 49.844C28.7259 47.744 30.1059 46.448 31.8819 46.448C33.6819 46.448 34.8819 47.708 34.9179 49.772V50.108H30.1419C30.2379 51.224 30.9339 51.98 32.0139 51.98C32.7459 51.98 33.2979 51.62 33.5139 50.984H34.8939C34.5699 52.352 33.5019 53.18 32.0019 53.18ZM30.2019 49.112H33.4539C33.2739 48.2 32.7099 47.648 31.8819 47.648C31.0419 47.648 30.4179 48.2 30.2019 49.112ZM38.6353 53H37.1473L35.2633 46.64H36.7153L37.9993 51.248L39.2593 46.64H40.4353L41.7073 51.2L42.9673 46.64H44.4193L42.5353 53H41.0713L39.8473 48.656L38.6353 53ZM47.7381 53.18C45.9981 53.18 44.9661 52.364 44.8821 50.972H46.2501C46.2981 51.656 46.8861 52.016 47.6661 52.016C48.3861 52.016 48.7701 51.74 48.7701 51.248C48.7701 50.756 48.3621 50.66 47.8101 50.48L46.9701 50.204C45.9141 49.856 45.0021 49.496 45.0021 48.32C45.0021 47.192 45.8661 46.448 47.3901 46.448C48.8661 46.448 49.8741 47.228 50.0421 48.668H48.6981C48.6261 47.948 48.1101 47.612 47.3781 47.612C46.7541 47.612 46.3941 47.876 46.3941 48.308C46.3941 48.8 46.9461 48.932 47.4021 49.088L48.1701 49.34C49.4301 49.76 50.1861 50.144 50.1861 51.284C50.1861 52.46 49.2981 53.18 47.7381 53.18Z" fill="#A2A1A1"/>
<path d="M53.8663 9.96336C53.8663 9.85533 53.8663 9.7743 53.8663 9.66627C53.7313 6.6953 51.3545 4.31852 48.4376 4.2375C47.8974 4.2375 47.3032 4.2375 46.574 4.2375C45.8447 4.2375 45.7097 4.2375 45.2775 4.2375C44.8454 4.2375 44.4133 4.2375 43.9811 4.2375H43.1979C42.3876 2.07679 40.3349 0.591309 37.7961 0.591309C35.1492 0.591309 32.5024 0.591309 29.8555 0.591309C27.2087 0.591309 24.4808 0.591309 21.7799 0.591309C18.4848 0.591309 16 3.07612 16 6.37119C16 13.8796 16 21.3881 16 28.8965C16 29.5177 16.081 30.1389 16.2161 30.6791C16.9993 33.7851 19.7812 35.9458 22.9683 35.9458C25.7232 35.9458 28.5051 35.9458 31.26 35.9458H35.9865H40.3079C40.47 35.9458 40.578 35.9458 40.686 35.9458H40.7671L46.1688 35.6487C46.4119 35.6757 46.682 35.7028 46.9251 35.7028C47.4383 35.7028 47.9244 35.6487 48.4376 35.5407C48.5996 35.5137 48.7617 35.4597 48.8967 35.4327C51.8677 34.5414 53.8663 31.8405 53.8663 28.7075C53.8663 24.062 53.8663 19.4164 53.8663 14.7709V9.96336ZM40.2809 31.9215C37.2829 31.9215 34.258 31.9215 31.26 31.9215C28.262 31.9215 25.7232 31.9215 22.9683 31.9215C21.6178 31.9215 20.4835 31.0302 20.1324 29.7068C20.0783 29.4367 20.0513 29.1666 20.0513 28.8965C20.0513 21.3881 20.0513 13.8796 20.0513 6.37119C20.0513 5.31785 20.7265 4.64263 21.7799 4.64263C24.4808 4.64263 27.1546 4.64263 29.8555 4.64263C32.5564 4.64263 35.1492 4.64263 37.7961 4.64263C38.8494 4.64263 39.5247 5.31785 39.5247 6.37119C39.5247 13.6096 39.5247 20.8479 39.5247 28.0863C39.5247 29.4367 39.6057 30.7331 40.524 31.9215C40.389 31.9215 40.3619 31.9215 40.3079 31.9215H40.2809ZM49.788 28.7075C49.788 30.0579 48.9507 31.1653 47.7083 31.5434C47.4382 31.6244 47.1412 31.6784 46.8711 31.6784C45.3316 31.6784 43.9811 30.436 43.9541 28.8155C43.9541 26.6278 43.9541 24.4401 43.9541 22.2524C43.9541 17.7419 43.9541 13.2314 43.9541 8.69395V8.28882C44.8184 8.28882 45.6827 8.28882 46.547 8.28882C47.4112 8.28882 47.7353 8.28882 48.3295 8.28882C49.1398 8.28882 49.788 9.01805 49.815 9.82832C49.815 9.88234 49.815 9.90935 49.815 9.96336C49.815 16.2024 49.815 22.4684 49.815 28.7075H49.788Z" fill="#999999"/>
<path d="M26.6687 15.3651C25.9934 15.3651 25.3182 15.3651 24.67 15.3651C23.4816 15.3651 22.5903 14.4738 22.5903 13.2854C22.5903 12.7993 22.5903 12.3131 22.5903 11.8269V11.2057V10.6115C22.5903 10.1524 22.5903 9.66624 22.5903 9.20709C22.5903 7.99169 23.4816 7.1004 24.697 7.1004C26.0475 7.1004 27.3979 7.1004 28.7483 7.1004C29.9367 7.1004 30.828 7.99169 30.828 9.20709C30.828 10.5575 30.828 11.908 30.828 13.2584C30.828 14.4738 29.9367 15.3651 28.7483 15.3651C28.0731 15.3651 27.3709 15.3651 26.6957 15.3651H26.6687ZM25.2642 12.6642C26.2095 12.6642 27.1548 12.6642 28.1001 12.6642C28.1001 11.7189 28.1001 10.7736 28.1001 9.82829C27.1548 9.82829 26.2095 9.82829 25.2642 9.82829C25.2642 10.0984 25.2642 10.3685 25.2642 10.6386V11.2327V11.854C25.2642 12.124 25.2642 12.4211 25.2642 12.6912V12.6642Z" fill="#999999"/>
<path d="M35.7976 21.3341H23.9408C23.1845 21.3341 22.5903 20.7399 22.5903 19.9836C22.5903 19.2274 23.1845 18.6332 23.9408 18.6332H35.7976C36.5539 18.6332 37.1481 19.2274 37.1481 19.9836C37.1481 20.7399 36.5539 21.3341 35.7976 21.3341Z" fill="#999999"/>
<path d="M35.7976 28.2213H23.9408C23.1845 28.2213 22.5903 27.6271 22.5903 26.8709C22.5903 26.1146 23.1845 25.5204 23.9408 25.5204H35.7976C36.5539 25.5204 37.1481 26.1146 37.1481 26.8709C37.1481 27.6271 36.5539 28.2213 35.7976 28.2213Z" fill="#999999"/>
<path d="M35.7978 9.80128H34.0692C33.3129 9.80128 32.7188 9.20709 32.7188 8.45084C32.7188 7.6946 33.3129 7.1004 34.0692 7.1004H35.7978C36.554 7.1004 37.1482 7.6946 37.1482 8.45084C37.1482 9.20709 36.554 9.80128 35.7978 9.80128Z" fill="#999999"/>
<path d="M35.7978 15.3651H34.0692C33.3129 15.3651 32.7188 14.7709 32.7188 14.0147C32.7188 13.2584 33.3129 12.6642 34.0692 12.6642H35.7978C36.554 12.6642 37.1482 13.2584 37.1482 14.0147C37.1482 14.7709 36.554 15.3651 35.7978 15.3651Z" fill="#999999"/>
</svg>
