<svg width="70" height="62" viewBox="0 0 70 62" fill="none" xmlns="http://www.w3.org/2000/svg">
<path d="M20.4783 55.18C18.2703 55.18 16.7943 54.076 16.6863 52.408H18.1623C18.2943 53.32 19.1343 53.896 20.4783 53.896C21.5703 53.896 22.1463 53.476 22.1463 52.768C22.1463 52.108 21.6303 51.844 20.8143 51.592L19.4463 51.184C18.4623 50.884 16.9263 50.452 16.9263 48.808C16.9263 47.428 18.0663 46.42 19.9263 46.42C21.9543 46.42 23.2503 47.512 23.3583 49.288H21.8943C21.8343 48.34 21.1383 47.704 19.8783 47.704C18.9543 47.704 18.3543 48.088 18.3543 48.736C18.3543 49.468 19.0863 49.648 19.9023 49.912L21.1743 50.308C22.3623 50.68 23.6103 51.112 23.6103 52.696C23.6103 54.22 22.3983 55.18 20.4783 55.18ZM26.7519 55.132C25.2879 55.132 24.3279 54.424 24.3399 53.236C24.3519 51.748 25.8279 51.436 27.0639 51.292C28.0239 51.184 28.7319 51.148 28.7439 50.644C28.7319 50.02 28.2519 49.612 27.4359 49.612C26.5959 49.612 25.9959 50.068 25.9119 50.728H24.4839C24.6159 49.384 25.8159 48.448 27.4599 48.448C29.1759 48.448 30.1239 49.384 30.1239 50.74V53.62C30.1239 53.8 30.2199 53.896 30.4359 53.896H30.7839V55H30.1119C29.4639 55 29.0679 54.736 28.9599 54.256C28.9359 54.196 28.9119 54.112 28.8999 54.04C28.5279 54.724 27.8319 55.132 26.7519 55.132ZM27.0399 54.016C28.0119 54.016 28.7439 53.464 28.7439 52.612V51.724C28.5039 52.096 27.8919 52.18 27.2199 52.264C26.4279 52.36 25.7679 52.468 25.7679 53.14C25.7679 53.692 26.2119 54.016 27.0399 54.016ZM33.6234 55H32.2074V49.84H31.0914V48.64H32.2074V47.848C32.2074 46.648 32.9154 46 34.2354 46H35.6154V47.2H34.3314C33.8754 47.2 33.6234 47.464 33.6234 47.944V48.64H35.4714V49.84H33.6234V55ZM39.0955 55.18C37.1515 55.18 35.8195 53.788 35.8195 51.844C35.8195 49.744 37.1995 48.448 38.9755 48.448C40.7755 48.448 41.9755 49.708 42.0115 51.772V52.108H37.2355C37.3315 53.224 38.0275 53.98 39.1075 53.98C39.8395 53.98 40.3915 53.62 40.6075 52.984H41.9875C41.6635 54.352 40.5955 55.18 39.0955 55.18ZM37.2955 51.112H40.5475C40.3675 50.2 39.8035 49.648 38.9755 49.648C38.1355 49.648 37.5115 50.2 37.2955 51.112ZM46.4869 55H45.6709C44.2909 55 43.5469 54.316 43.5469 53.056V49.84H42.4309V48.64H43.5469V46.468H44.9629V48.64H46.6069V49.84H44.9629V52.96C44.9629 53.5 45.2389 53.8 45.7669 53.8H46.4869V55ZM48.6559 57.4H47.5039V56.2H48.6559C49.1839 56.2 49.4719 56.008 49.5919 55.672L49.8439 55H49.5799L47.0599 48.64H48.5839L50.4079 53.464L52.1959 48.64H53.6719L50.8999 56.092C50.5759 56.944 49.9039 57.4 48.6559 57.4Z" fill="#A2A1A1"/>
<path d="M35.2046 4.75214C35.3126 4.75214 35.4477 4.80616 35.5827 4.91419C38.3376 6.7778 41.2546 8.26328 44.4956 9.04654C45.576 9.31663 46.6563 9.47868 47.7907 9.69475C47.7907 9.77578 47.7907 9.8568 47.7907 9.96484C47.7907 12.5307 47.8717 15.0695 47.7907 17.6353C47.6016 23.1451 45.3869 27.6286 40.8765 30.9237C39.418 32.004 37.7434 32.7062 36.0419 33.2734C35.7448 33.3815 35.4747 33.4085 35.1776 33.4085C34.8805 33.4085 34.3943 33.3274 34.0162 33.1654C27.7502 30.5185 23.996 25.846 22.7806 19.1478C22.6185 18.2835 22.5645 17.3652 22.5645 16.474C22.5375 14.3133 22.5645 12.1526 22.5645 9.96484C22.5645 9.8568 22.5645 9.74877 22.5645 9.66774C23.7259 9.45167 24.8332 9.26261 25.9406 8.99252C29.1546 8.18226 32.0716 6.72378 34.7995 4.86018C34.9345 4.75214 35.0696 4.72513 35.1776 4.72513M35.2046 0.160645C34.1513 0.160645 33.1519 0.48475 32.2336 1.10595C29.7218 2.80751 27.318 3.94188 24.8602 4.56308C24.239 4.72513 23.5638 4.83317 22.8346 4.96821C22.4565 5.04924 22.0783 5.10325 21.7002 5.18428C19.6475 5.58941 18.135 7.31798 18 9.37064C18 9.47868 18 9.69475 18 9.96484C18 10.559 18 11.1532 18 11.7204C18 13.2869 18 14.9074 18 16.528C18 17.4463 18.054 18.6617 18.2971 19.9581C19.0533 24.0364 20.6199 27.6016 22.9426 30.5185C25.2924 33.4355 28.3984 35.7582 32.2336 37.3788C33.206 37.7839 34.1783 38 35.2046 38C36.2309 38 36.7711 37.8649 37.5274 37.6218C39.2289 37.0547 41.4706 36.1904 43.6043 34.6239C46.4133 32.5712 48.574 30.0864 50.0595 27.1965C51.4909 24.3875 52.3012 21.2275 52.4092 17.7704C52.4632 15.9068 52.4632 14.0702 52.4362 12.2876C52.4362 11.5313 52.4362 10.7211 52.4362 9.96484C52.4362 9.72176 52.4362 9.50569 52.4362 9.39765C52.3012 7.31798 50.7887 5.58941 48.736 5.18428C48.3579 5.10325 47.9798 5.04924 47.6016 4.96821C46.8994 4.83317 46.2512 4.72513 45.657 4.56308C43.1722 3.94188 40.7414 2.80751 38.2296 1.10595C37.3113 0.48475 36.312 0.160645 35.2586 0.160645H35.2046Z" fill="#999999"/>
<path d="M34.2861 25.819C33.7189 25.819 33.1788 25.603 32.7466 25.2249L28.4792 21.4166C27.5339 20.5793 27.4529 19.1209 28.2902 18.1756C29.1274 17.2302 30.5859 17.1492 31.5312 17.9865L34.016 20.2012L39.931 13.1249C40.7412 12.1526 42.1997 12.0175 43.172 12.8278C44.1443 13.6381 44.2794 15.0966 43.4691 16.0689L36.0147 24.9818C35.6096 25.4679 35.0424 25.765 34.4212 25.792C34.3672 25.792 34.3131 25.792 34.2591 25.792L34.2861 25.819Z" fill="#999999"/>
</svg>
