<svg width="70" height="64" viewBox="0 0 70 64" fill="none" xmlns="http://www.w3.org/2000/svg">
<path d="M16.3925 57.18C14.1845 57.18 12.7085 56.076 12.6005 54.408H14.0765C14.2085 55.32 15.0485 55.896 16.3925 55.896C17.4845 55.896 18.0605 55.476 18.0605 54.768C18.0605 54.108 17.5445 53.844 16.7285 53.592L15.3605 53.184C14.3765 52.884 12.8405 52.452 12.8405 50.808C12.8405 49.428 13.9805 48.42 15.8405 48.42C17.8685 48.42 19.1645 49.512 19.2725 51.288H17.8085C17.7485 50.34 17.0525 49.704 15.7925 49.704C14.8685 49.704 14.2685 50.088 14.2685 50.736C14.2685 51.468 15.0005 51.648 15.8165 51.912L17.0885 52.308C18.2765 52.68 19.5245 53.112 19.5245 54.696C19.5245 56.22 18.3125 57.18 16.3925 57.18ZM23.506 57.18C21.562 57.18 20.23 55.788 20.23 53.844C20.23 51.744 21.61 50.448 23.386 50.448C25.186 50.448 26.386 51.708 26.422 53.772V54.108H21.646C21.742 55.224 22.438 55.98 23.518 55.98C24.25 55.98 24.802 55.62 25.018 54.984H26.398C26.074 56.352 25.006 57.18 23.506 57.18ZM21.706 53.112H24.958C24.778 52.2 24.214 51.648 23.386 51.648C22.546 51.648 21.922 52.2 21.706 53.112ZM30.8975 57H30.0815C28.7015 57 27.9575 56.316 27.9575 55.056V51.84H26.8415V50.64H27.9575V48.468H29.3735V50.64H31.5815V48.468H32.9975V50.64H34.6415V51.84H32.9975V54.96C32.9975 55.5 33.2735 55.8 33.8015 55.8H34.5215V57H33.7055C32.3255 57 31.5815 56.316 31.5815 55.056V51.84H29.3735V54.96C29.3735 55.5 29.6495 55.8 30.1775 55.8H30.8975V57ZM36.2932 49.788C35.7772 49.788 35.3812 49.38 35.3812 48.864C35.3812 48.348 35.7772 47.952 36.2932 47.952C36.8212 47.952 37.2052 48.348 37.2052 48.864C37.2052 49.38 36.8212 49.788 36.2932 49.788ZM37.0012 57H35.5852V50.64H37.0012V57ZM39.7706 57H38.3546V50.64H39.4946L39.6146 51.576C40.0106 50.916 40.8146 50.448 41.7626 50.448C43.1186 50.448 44.0066 51.36 44.0066 52.788V57H42.5906V52.86C42.5906 52.152 42.1226 51.684 41.3306 51.684C40.4066 51.684 39.7826 52.32 39.7706 53.148V57ZM48.1764 59.592C46.4004 59.592 45.1764 58.728 45.1764 57.36H46.5924C46.5924 57.96 47.2284 58.44 48.1764 58.44C49.3044 58.44 49.8924 57.768 49.8924 56.808V55.908C49.4844 56.52 48.7764 56.904 47.8644 56.904C46.1604 56.904 44.9364 55.584 44.9364 53.688C44.9364 51.78 46.1604 50.448 47.8524 50.448C48.8484 50.448 49.6524 50.916 50.0484 51.624L50.1684 50.64H51.2964V56.808C51.2964 58.488 50.1084 59.592 48.1764 59.592ZM48.1404 55.716C49.1724 55.716 49.8924 54.876 49.8924 53.676C49.8924 52.476 49.1724 51.648 48.1404 51.648C47.1084 51.648 46.4004 52.476 46.4004 53.688C46.4004 54.888 47.1084 55.716 48.1404 55.716ZM55.1675 57.18C53.4275 57.18 52.3955 56.364 52.3115 54.972H53.6795C53.7275 55.656 54.3155 56.016 55.0955 56.016C55.8155 56.016 56.1995 55.74 56.1995 55.248C56.1995 54.756 55.7915 54.66 55.2395 54.48L54.3995 54.204C53.3435 53.856 52.4315 53.496 52.4315 52.32C52.4315 51.192 53.2955 50.448 54.8195 50.448C56.2955 50.448 57.3035 51.228 57.4715 52.668H56.1275C56.0555 51.948 55.5395 51.612 54.8075 51.612C54.1835 51.612 53.8235 51.876 53.8235 52.308C53.8235 52.8 54.3755 52.932 54.8315 53.088L55.5995 53.34C56.8595 53.76 57.6155 54.144 57.6155 55.284C57.6155 56.46 56.7275 57.18 55.1675 57.18Z" fill="#A2A1A1"/>
<path d="M38.4903 4.10534C38.5984 4.78056 38.7064 5.42877 38.8414 6.10399C39.3546 8.75085 41.4613 10.4254 43.8921 10.4254C46.3229 10.4254 45.2425 10.2904 45.9177 10.0473C46.4039 9.85821 46.9171 9.69616 47.4032 9.48009C47.4572 9.48009 47.5113 9.45308 47.5653 9.45308C47.6463 9.45308 47.7003 9.5071 47.7543 9.58812C48.7266 11.2897 49.699 12.9642 50.6713 14.6658C50.6713 14.6928 50.6713 14.7468 50.6983 14.7738C50.2391 15.1519 49.753 15.5571 49.2938 15.9352C46.62 18.1499 46.62 21.8771 49.2938 24.0919C49.753 24.47 50.2391 24.8751 50.7253 25.2802C50.2931 26.0095 49.888 26.7657 49.4559 27.495C48.9157 28.4403 48.3485 29.4126 47.8084 30.3579C47.7273 30.5199 47.6463 30.574 47.5112 30.574C47.3762 30.574 47.3762 30.574 47.2952 30.5199C46.5119 30.2228 45.7017 29.8987 44.8914 29.7097C44.5403 29.6287 44.1892 29.6016 43.865 29.6016C41.5153 29.6016 39.3276 31.3572 38.8684 33.734C38.7334 34.4362 38.6254 35.1655 38.4903 35.8947H32.3053C32.1973 35.2195 32.0622 34.5172 31.9542 33.815C31.495 31.3032 29.3073 29.6016 26.9035 29.6016C24.4998 29.6016 25.7422 29.7097 25.148 29.8987C24.5808 30.1148 23.9866 30.3309 23.4194 30.547C23.3654 30.547 23.3114 30.574 23.2574 30.574C23.1763 30.574 23.1223 30.547 23.0683 30.4389C22.096 28.7374 21.1237 27.0628 20.1513 25.3613C20.1513 25.3343 20.1513 25.3072 20.1243 25.2532C20.6105 24.8481 21.1237 24.443 21.6368 24.0108C24.2027 21.8501 24.2027 18.1229 21.6368 15.9622C21.1507 15.5571 20.6645 15.1519 20.1243 14.7198C21.0426 13.1533 21.9069 11.6138 22.7982 10.0743C23.0413 9.64214 23.1493 9.48009 23.3654 9.48009C23.5815 9.48009 23.6895 9.56112 23.9866 9.64214C24.7158 9.88522 25.4451 10.2093 26.2013 10.3174C26.4714 10.3444 26.7145 10.3714 26.9575 10.3714C29.5504 10.3714 31.6571 8.50777 32.0352 5.80689C32.1162 5.23971 32.2243 4.67252 32.3323 4.07833H38.5173M38.4903 0.0540176H32.3053C30.3337 0.0540176 28.6321 1.48548 28.308 3.43012C28.281 3.61918 28.254 3.80824 28.227 3.97029C28.146 4.37543 28.0919 4.80757 28.0109 5.26672C27.9029 5.94194 27.5247 6.34707 26.9305 6.34707C26.3364 6.34707 26.7955 6.34707 26.7145 6.34707C26.5794 6.34707 26.1743 6.18502 25.8772 6.07698C25.6881 5.99595 25.4991 5.94194 25.283 5.86091H25.229C24.7698 5.67185 24.1216 5.45578 23.3114 5.45578C20.7455 5.45578 19.6112 7.42742 19.233 8.07563C18.6118 9.15598 17.9636 10.2633 17.3424 11.3707L16.5592 12.7482C15.5598 14.4767 15.965 16.6374 17.5045 17.9068L17.9906 18.312C18.3147 18.5821 18.6388 18.8521 18.9629 19.1222C19.2871 19.3923 19.4491 19.7164 19.4491 20.0405C19.4491 20.3646 19.2871 20.6887 18.9629 20.9588C18.6388 21.2289 18.3147 21.499 17.9636 21.7691C17.8016 21.9041 17.6395 22.0392 17.4775 22.1742C16.2081 23.2276 15.6949 24.9021 16.181 26.4686C16.2351 26.6307 16.3431 27.0088 16.5862 27.4409L17.4234 28.8994C18.1257 30.0878 18.8009 31.3032 19.4761 32.4916C20.2594 33.869 21.6368 34.6793 23.1763 34.6793C24.7158 34.6793 24.2837 34.5713 24.8239 34.3552C25.337 34.1391 25.8772 33.9501 26.4174 33.761C26.5524 33.707 26.6875 33.68 26.7955 33.68C27.2547 33.68 27.7678 33.9771 27.8759 34.5713C27.9569 35.0304 28.0379 35.4896 28.1189 35.9487C28.1459 36.1648 28.2 36.3809 28.227 36.5969C28.5511 38.5416 30.2526 39.946 32.2243 39.946H38.4093C40.3809 39.946 42.0825 38.5145 42.4066 36.5699C42.4336 36.3268 42.4876 36.1108 42.5146 35.8677C42.5956 35.3815 42.6767 34.9224 42.7577 34.4632C42.8387 34.0041 43.3519 33.653 43.757 33.653C44.1622 33.653 43.8651 33.653 43.8921 33.653C44.2702 33.734 44.7294 33.9231 45.2425 34.1121C45.4316 34.1931 45.5936 34.2472 45.7827 34.3282C46.3229 34.5173 46.8631 34.6253 47.4032 34.6253C48.9967 34.6253 50.4282 33.761 51.2385 32.3025C51.5896 31.6543 51.9677 31.0061 52.3728 30.3309C52.5349 30.0608 52.6969 29.7637 52.859 29.4936C53.1561 28.9804 53.4532 28.4673 53.7503 27.9541L54.1284 27.2789C55.1277 25.5503 54.7226 23.3896 53.1831 22.1202L52.7239 21.7421C52.3998 21.472 52.0757 21.2019 51.7516 20.9588C51.4005 20.6617 51.2115 20.3376 51.2115 19.9865C51.2115 19.6624 51.4005 19.3113 51.7516 19.0412C52.0757 18.7711 52.3998 18.501 52.7239 18.2309L53.1831 17.8528C54.4255 16.8265 54.9387 15.206 54.5065 13.6665C54.4525 13.4774 54.3445 13.0723 54.0744 12.5861L53.1831 11.0466C52.5079 9.88522 51.8326 8.69683 51.1574 7.50845C50.3742 6.131 48.9967 5.32073 47.4572 5.32073C46.89 5.32073 46.3499 5.42877 45.7827 5.64484C45.5126 5.75287 45.2425 5.86091 44.9454 5.96895C44.7563 6.04997 44.5673 6.10399 44.3782 6.18502C44.1622 6.26604 43.9731 6.29305 43.784 6.29305C43.0278 6.29305 42.7847 5.64484 42.7307 5.26672C42.6497 4.88859 42.5956 4.45645 42.5146 4.02431C42.4876 3.80824 42.4336 3.59217 42.4066 3.3761C42.0825 1.43147 40.3809 0 38.4093 0L38.4903 0.0540176Z" fill="#999999"/>
<path d="M35.4114 16.1783C37.5181 16.1783 39.2196 17.8798 39.2196 19.9865C39.2196 22.0932 37.5181 23.7947 35.4114 23.7947C33.3047 23.7947 31.6032 22.0932 31.6032 19.9865C31.6032 17.8798 33.3047 16.1783 35.4114 16.1783ZM35.4114 12.8292C31.4681 12.8292 28.2271 16.0432 28.2271 20.0135C28.2271 23.9838 31.4411 27.1978 35.4114 27.1978C39.3817 27.1978 42.5957 23.9838 42.5957 20.0135C42.5957 16.0432 39.3817 12.8292 35.4114 12.8292Z" fill="#999999"/>
</svg>
