<svg width="188" height="45" viewBox="0 0 188 45" fill="none" xmlns="http://www.w3.org/2000/svg">
<path d="M185.448 44H186.448V43V36.6743V35.6743H185.448H164.191V26.0186H182.871H183.871V25.0186V18.8686V17.8686H182.871H164.191V9.32572H184.921H185.921V8.32572V2V1H184.921H156.221H155.221V2V43V44H156.221H185.448Z" fill="#EBEBEB" stroke="#EBEBEB" stroke-width="2"/>
<path d="M123.226 44H124.226V43V28.5371H135.233C136.014 28.5371 136.619 28.7192 137.07 29.0164C137.515 29.3099 137.871 29.7553 138.099 30.392L138.099 30.3921L138.102 30.3998L142.846 43.3441L143.086 44H143.785H151.282H152.723L152.219 42.6502L146.947 28.5344L146.944 28.5255L146.941 28.5166C146.191 26.6198 144.952 25.1521 143.304 24.2115C147.625 22.1833 150.408 18.2662 150.408 13.5971C150.408 9.89186 148.943 6.71615 146.4 4.47808C143.867 2.24859 140.325 1 136.229 1H116.198H115.198V2V43V44H116.198H123.226ZM135.878 20.3286H124.226V9.32572H135.878C137.65 9.32572 139.026 9.89527 139.953 10.7991C140.879 11.7013 141.438 13.013 141.438 14.6514C141.438 16.2368 140.944 17.6538 140.039 18.6616C139.148 19.6534 137.789 20.3286 135.878 20.3286Z" fill="#EBEBEB" stroke="#EBEBEB" stroke-width="2"/>
<path d="M78.2721 44H78.9427L79.1972 43.3797L83.1012 33.8671H99.5073L103.411 43.3797L103.666 44H104.336H111.599H113.09L112.525 42.6206L95.7145 1.62065L95.4601 1H94.7893H87.7607H87.089L86.835 1.62178L70.0836 42.6218L69.5205 44H71.0093H78.2721ZM96.174 25.6586H86.4397L91.3293 13.7263L96.174 25.6586Z" fill="#EBEBEB" stroke="#EBEBEB" stroke-width="2"/>
<path d="M65.9908 44H66.9908V43V36.6743V35.6743H65.9908H46.0808V2V1H45.0808H38.0522H37.0522V2V43V44H38.0522H65.9908Z" fill="#EBEBEB" stroke="#EBEBEB" stroke-width="2"/>
<path d="M9.58131 44H10.5813V43V26.9557H30.0227H31.0227V25.9557V19.63V18.63H30.0227H10.5813V9.32572H31.6042H32.6042V8.32572V2V1H31.6042H2.55273H1.55273V2V43V44H2.55273H9.58131Z" fill="#EBEBEB" stroke="#EBEBEB" stroke-width="2"/>
</svg>
