<svg width="191" height="191" viewBox="0 0 191 191" fill="none" xmlns="http://www.w3.org/2000/svg">
<path d="M154.24 0H36.658C16.4123 0 0 16.4123 0 36.658V154.24C0 174.486 16.4123 190.898 36.658 190.898H154.24C174.486 190.898 190.898 174.486 190.898 154.24V36.658C190.898 16.4123 174.486 0 154.24 0Z" fill="#F45D01"/>
<path d="M79.5404 76.7742H34.5826C33.1992 76.7742 32.5076 76.7742 31.8159 75.3909L9.68281 53.2578C8.29949 51.8745 9.68281 49.1078 11.7578 49.1078H56.7157C58.099 49.1078 58.7907 49.1079 59.4823 50.4912L81.6154 72.6243C82.9987 74.0076 81.6154 76.7742 79.5404 76.7742Z" fill="white"/>
<path d="M145.248 136.257H99.5982C94.7566 136.257 90.6067 134.182 87.1484 131.415L39.4238 83.6908H85.0734C89.915 83.6908 94.065 85.7658 97.5233 88.5324L145.248 136.257Z" fill="white"/>
<path d="M150.09 76.7741H104.441C99.5991 76.7741 95.4491 74.6991 91.9908 71.9325L69.166 49.1077H112.741C118.274 49.1077 123.807 51.1827 127.957 55.3327L149.399 76.7741H150.09Z" fill="white"/>
<path d="M152.452 100.097H122.269C121.341 100.097 120.876 100.097 120.412 99.2909L105.553 86.3855C104.624 85.5789 105.553 83.9657 106.946 83.9657H137.129C138.057 83.9657 138.522 83.9657 138.986 84.7723L153.845 97.6777C154.774 98.4843 153.845 100.097 152.452 100.097Z" fill="white"/>
<path d="M154.552 0.0806885H36.4478C16.3183 0.0806885 0 16.3438 0 36.4054V154.111C0 174.172 16.3183 190.435 36.4478 190.435H154.552C174.682 190.435 191 174.172 191 154.111V36.4054C191 16.3438 174.682 0.0806885 154.552 0.0806885Z" fill="#F45D01"/>
<path d="M91.6597 79.3628H45.916C45.2472 79.3628 44.6453 79.0963 44.1772 78.6299L21.3722 55.9114C19.834 54.379 20.9041 51.6475 23.111 51.6475H68.8547C69.5234 51.6475 70.1253 51.914 70.5935 52.3803L93.3985 75.0989C94.9366 76.6312 93.8666 79.3628 91.6597 79.3628Z" fill="white"/>
<path d="M157.266 138.791H111.589C106.974 138.791 102.628 136.926 99.3506 133.728L51.4668 86.0255H97.1436C101.758 86.0255 106.105 87.8243 109.382 91.0888L157.266 138.791Z" fill="white"/>
<path d="M162.081 79.3628H116.404C111.79 79.3628 107.443 77.5639 104.166 74.2994L81.4277 51.6475H125.232C130.983 51.6475 136.534 53.9127 140.614 57.9767L162.014 79.2961L162.081 79.3628Z" fill="white"/>
<path d="M169.705 102.481L154.391 87.2242C153.588 86.4247 152.518 85.9583 151.381 85.9583H119.548C117.341 85.9583 116.204 88.6233 117.809 90.2222L134.395 106.745H167.967C170.174 106.745 171.311 104.08 169.705 102.481Z" fill="white"/>
</svg>
